<?xml version="1.0" encoding="iso-8859-1"?>
<!-- Generator: Adobe Illustrator 19.0.0, SVG Export Plug-In . SVG Version: 6.00 Build 0)  -->
<svg xmlns="http://www.w3.org/2000/svg" xmlns:xlink="http://www.w3.org/1999/xlink" version="1.1" id="Capa_1" x="0px" y="0px" viewBox="0 0 512 512" style="enable-background:new 0 0 512 512;" xml:space="preserve" width="512px" height="512px">
<g>
	<g>
		<g>
			<path d="M452,184h-48V8c0-4.418-3.582-8-8-8H100c-4.418,0-8,3.582-8,8v176H60c-4.418,0-8,3.582-8,8v312c0,4.418,3.582,8,8,8h392     c4.418,0,8-3.582,8-8V192C460,187.582,456.418,184,452,184z M108,16h280v168H108V16z M444,496H68v-88h376V496z M444,392H68v-88     h376V392z M444,288H68v-88h376V288z" fill="#292b2c"/>
			<path d="M92,272h328c4.418,0,8-3.582,8-8v-40c0-4.418-3.582-8-8-8H92c-4.418,0-8,3.582-8,8v40C84,268.418,87.582,272,92,272z      M100,232h104c0,4.418,3.582,8,8,8h96c4.418,0,8-3.582,8-8h96v24H100V232z" fill="#292b2c"/>
			<path d="M300,40c-35.346,0-64,28.654-64,64c0,35.346,28.654,64,64,64c35.346,0,64-28.654,64-64C363.96,68.67,335.33,40.04,300,40     z M300,152c-26.51,0-48-21.49-48-48s21.49-48,48-48c26.51,0,48,21.49,48,48C347.974,130.499,326.499,151.974,300,152z" fill="#292b2c"/>
			<path d="M220,56h-80c-4.418,0-8,3.582-8,8s3.582,8,8,8h80c4.418,0,8-3.582,8-8S224.418,56,220,56z" fill="#292b2c"/>
			<path d="M140,112h56c4.418,0,8-3.582,8-8s-3.582-8-8-8h-56c-4.418,0-8,3.582-8,8S135.582,112,140,112z" fill="#292b2c"/>
			<path d="M212,128h-72c-4.418,0-8,3.582-8,8s3.582,8,8,8h72c4.418,0,8-3.582,8-8S216.418,128,212,128z" fill="#292b2c"/>
			<path d="M92,376h328c4.418,0,8-3.582,8-8v-40c0-4.418-3.582-8-8-8H92c-4.418,0-8,3.582-8,8v40C84,372.418,87.582,376,92,376z      M100,336h104c0,4.418,3.582,8,8,8h96c4.418,0,8-3.582,8-8h96v24H100V336z" fill="#292b2c"/>
			<path d="M92,480h328c4.418,0,8-3.582,8-8v-40c0-4.418-3.582-8-8-8H92c-4.418,0-8,3.582-8,8v40C84,476.418,87.582,480,92,480z      M100,440h104c0,4.418,3.582,8,8,8h96c4.418,0,8-3.582,8-8h96v24H100V440z" fill="#292b2c"/>
		</g>
	</g>
</g>
<g>
</g>
<g>
</g>
<g>
</g>
<g>
</g>
<g>
</g>
<g>
</g>
<g>
</g>
<g>
</g>
<g>
</g>
<g>
</g>
<g>
</g>
<g>
</g>
<g>
</g>
<g>
</g>
<g>
</g>
</svg>
