<?xml version="1.0" encoding="iso-8859-1"?>
<!-- Generator: Adobe Illustrator 19.0.0, SVG Export Plug-In . SVG Version: 6.00 Build 0)  -->
<svg xmlns="http://www.w3.org/2000/svg" xmlns:xlink="http://www.w3.org/1999/xlink" version="1.1" id="Layer_1" x="0px" y="0px" viewBox="0 0 511.996 511.996" style="enable-background:new 0 0 511.996 511.996;" xml:space="preserve" width="512px" height="512px">
<g>
	<g>
		<g>
			<path d="M0,74.66v42.671v85.328v42.671h511.996v-42.671v-85.328V74.66H0z M21.328,138.66h64c5.891,0,10.671-4.766,10.671-10.656     c0-5.906-4.781-10.672-10.671-10.672h-64V96.003h469.34v42.656h-85.343c-31.547,0-50.047,13.578-60.015,24.984     c-5.641,6.438-9.219,12.844-11.391,17.688H21.328V138.66z M21.328,224.002v-21.343h469.34v21.343H21.328z M490.669,181.331     H358.435c7.109-9.781,21-21.328,46.891-21.328h85.343V181.331z" fill="#292b2c"/>
			<path d="M0,309.336v85.312v42.688h511.996v-42.688v-85.312v-42.678H0V309.336z M21.328,287.994H217.53     c-0.859,1.186-1.828,2.404-2.891,3.654c-10.266,11.719-25.062,17.688-43.969,17.688H21.328V287.994z M21.328,330.648H170.67     c31.547,0,50.047-13.562,60.015-24.969c5.641-6.438,9.219-12.844,11.391-17.686h248.592v10.655h-42.672     c-5.891,0-10.672,4.781-10.672,10.688c0,5.875,4.781,10.656,10.672,10.656h42.672v21.344h-106.64     c-5.906,0-10.672,4.75-10.672,10.656s4.766,10.656,10.672,10.656h106.64v10.688H21.328V330.648z M21.328,394.648h469.34v21.344     H21.328V394.648z" fill="#292b2c"/>
		</g>
	</g>
</g>
<g>
</g>
<g>
</g>
<g>
</g>
<g>
</g>
<g>
</g>
<g>
</g>
<g>
</g>
<g>
</g>
<g>
</g>
<g>
</g>
<g>
</g>
<g>
</g>
<g>
</g>
<g>
</g>
<g>
</g>
</svg>
