<?xml version="1.0" encoding="iso-8859-1"?>
<!-- Generator: Adobe Illustrator 19.0.0, SVG Export Plug-In . SVG Version: 6.00 Build 0)  -->
<svg xmlns="http://www.w3.org/2000/svg" xmlns:xlink="http://www.w3.org/1999/xlink" version="1.1" id="Capa_1" x="0px" y="0px" viewBox="0 0 512 512" style="enable-background:new 0 0 512 512;" xml:space="preserve" width="512px" height="512px">
<g>
	<g>
		<g>
			<path d="M504,248h-24V72c0-4.418-3.582-8-8-8h-64c-4.418,0-8,3.582-8,8v176H296v-24h80c4.418,0,8-3.582,8-8V72     c0-4.418-3.582-8-8-8H136c-4.418,0-8,3.582-8,8v144c0,4.418,3.582,8,8,8h80v24H112V72c0-4.418-3.582-8-8-8H40     c-4.418,0-8,3.582-8,8v176H8c-4.418,0-8,3.582-8,8v144c0,4.418,3.582,8,8,8h24v32c0,4.418,3.582,8,8,8h24c4.418,0,8-3.582,8-8     v-32h368v32c0,4.418,3.582,8,8,8h24c4.418,0,8-3.582,8-8v-32h24c4.418,0,8-3.582,8-8V256C512,251.582,508.418,248,504,248z      M416,80h48v160h-48V80z M144,208V80h224v128H144z M280,224v24h-48v-24H280z M48,80h48v160H48V80z M56,432h-8v-24h8V432z      M248,392H16v-48h72c0,4.418,3.582,8,8,8h64c4.418,0,8-3.582,8-8h80V392z M248,328H16v-64h72c0,4.418,3.582,8,8,8h64     c4.418,0,8-3.582,8-8h80V328z M464,432h-8v-24h8V432z M496,392H264v-48h80c0,4.418,3.582,8,8,8h64c4.418,0,8-3.582,8-8h72V392z      M496,328H264v-64h80c0,4.418,3.582,8,8,8h64c4.418,0,8-3.582,8-8h72V328z" fill="#292b2c"/>
			<path d="M352,88H160c-4.418,0-8,3.582-8,8v96c0,4.418,3.582,8,8,8h192c4.418,0,8-3.582,8-8V96C360,91.582,356.418,88,352,88z      M344,184H168v-80h176V184z" fill="#292b2c"/>
			<circle cx="72" cy="112" r="16" fill="#292b2c"/>
			<circle cx="72" cy="192" r="16" fill="#292b2c"/>
			<circle cx="440" cy="112" r="16" fill="#292b2c"/>
			<circle cx="440" cy="192" r="16" fill="#292b2c"/>
		</g>
	</g>
</g>
<g>
</g>
<g>
</g>
<g>
</g>
<g>
</g>
<g>
</g>
<g>
</g>
<g>
</g>
<g>
</g>
<g>
</g>
<g>
</g>
<g>
</g>
<g>
</g>
<g>
</g>
<g>
</g>
<g>
</g>
</svg>
