<svg xmlns="http://www.w3.org/2000/svg" width="139.41" height="39.219" viewBox="0 0 139.41 39.219">
  <metadata><?xpacket begin="﻿" id="W5M0MpCehiHzreSzNTczkc9d"?>
<x:xmpmeta xmlns:x="adobe:ns:meta/" x:xmptk="Adobe XMP Core 5.6-c138 79.159824, 2016/09/14-01:09:01        ">
   <rdf:RDF xmlns:rdf="http://www.w3.org/1999/02/22-rdf-syntax-ns#">
      <rdf:Description rdf:about=""/>
   </rdf:RDF>
</x:xmpmeta>
                                                                                                    
                                                                                                    
                                                                                                    
                                                                                                    
                                                                                                    
                                                                                                    
                                                                                                    
                                                                                                    
                                                                                                    
                                                                                                    
                                                                                                    
                                                                                                    
                                                                                                    
                                                                                                    
                                                                                                    
                                                                                                    
                                                                                                    
                                                                                                    
                                                                                                    
                                                                                                    
                           
<?xpacket end="w"?></metadata>
<defs>
    <style>
      .cls-1 {
        fill: #000;
        fill-rule: evenodd;
      }
    </style>
  </defs>
  <path id="Setalt_копия" data-name="Setalt копия" class="cls-1" d="M1163.2,897.56a17.637,17.637,0,0,0-6.92,1.3,11.246,11.246,0,0,0-4.83,3.7,9.376,9.376,0,0,0-1.75,5.65,9.624,9.624,0,0,0,2.4,6.675q2.4,2.676,8.45,4.575a23.391,23.391,0,0,1,3.5,1.3,4.352,4.352,0,0,1,1.68,1.3,3.022,3.022,0,0,1,.47,1.75,2.753,2.753,0,0,1-1.1,2.275,5.118,5.118,0,0,1-3.25.875,12.886,12.886,0,0,1-8.55-3.4l-5.05,5.55a18.381,18.381,0,0,0,5.9,3.8,21.076,21.076,0,0,0,8.1,1.45,19.27,19.27,0,0,0,7.8-1.45,11.671,11.671,0,0,0,5.08-4.025,10.2,10.2,0,0,0,1.77-5.925,10.316,10.316,0,0,0-2.42-7.25q-2.43-2.649-7.93-4.4c-1.83-.6-3.15-1.066-3.97-1.4a4.823,4.823,0,0,1-1.75-1.075,2.293,2.293,0,0,1,.42-3.325,4.991,4.991,0,0,1,2.8-.65,11.713,11.713,0,0,1,7.45,2.8l4.55-5.35q-4.89-4.749-12.85-4.75h0Zm41.7,22.1a16.329,16.329,0,0,0-1.62-7.55,11.245,11.245,0,0,0-4.58-4.8,13.869,13.869,0,0,0-6.9-1.65,13.153,13.153,0,0,0-7.25,1.925,12.152,12.152,0,0,0-4.52,5.2,16.982,16.982,0,0,0-1.53,7.275q0,6.45,3.65,10.375t10.75,3.925a16.94,16.94,0,0,0,11-3.95l-4-5.4a16.338,16.338,0,0,1-3.2,1.775,7.63,7.63,0,0,1-2.85.575,6.18,6.18,0,0,1-3.67-.925q-1.275-.924-1.68-3.625h16.2a29.258,29.258,0,0,0,.2-3.15h0Zm-9.75-2.45h-6.7a8.841,8.841,0,0,1,1.08-4.15,2.839,2.839,0,0,1,2.47-1.15,2.494,2.494,0,0,1,2.43,1.3,8.41,8.41,0,0,1,.72,3.65v0.35Zm27.95,8.7a5.046,5.046,0,0,1-2.5.7,1.843,1.843,0,0,1-1.55-.725,4.256,4.256,0,0,1-.55-2.475V913.36h5l1-6.7h-6v-6.75l-9.9,1.15v5.6h-3.2v6.7h3.2v10.15c0,3.567.8,6.259,2.38,8.075s4.02,2.742,7.32,2.775a16.217,16.217,0,0,0,4.23-.6,11.711,11.711,0,0,0,3.77-1.7Zm26.9-1.2v-9.2q0-5-2.85-7.425T1238,905.66a30.372,30.372,0,0,0-10.55,2.1l2.15,6.3a32,32,0,0,1,3.83-1.025,16.287,16.287,0,0,1,3.07-.375,4.8,4.8,0,0,1,3.05.7,3.5,3.5,0,0,1,.8,2.7v0.65h-1.9q-6.3,0-9.6,2.35a7.833,7.833,0,0,0-3.3,6.8,8.189,8.189,0,0,0,2.43,6.125,8.7,8.7,0,0,0,6.37,2.375q5.46,0,8.05-3.9a6.677,6.677,0,0,0,2.8,2.675,12.244,12.244,0,0,0,4.4,1.025l2-6.35a2.265,2.265,0,0,1-1.25-1.025,4.746,4.746,0,0,1-.35-2.075h0Zm-12.6,2.7a2.045,2.045,0,0,1-1.6-.675,2.647,2.647,0,0,1-.6-1.825,2.707,2.707,0,0,1,1-2.3,5.184,5.184,0,0,1,3.1-.75h1.05v3.95a4.046,4.046,0,0,1-1.27,1.15,3.306,3.306,0,0,1-1.68.45h0Zm24.7,6.95a15.316,15.316,0,0,0,5.5-.9l-1.75-7.05a2.763,2.763,0,0,1-1.05.2,1.132,1.132,0,0,1-1.2-1.35v-30.1l-9.9,1v29.5a8.927,8.927,0,0,0,2.18,6.425,8.194,8.194,0,0,0,6.22,2.275h0Zm22.35-8.45a5.046,5.046,0,0,1-2.5.7,1.843,1.843,0,0,1-1.55-.725,4.256,4.256,0,0,1-.55-2.475V913.36h5l1-6.7h-6v-6.75l-9.9,1.15v5.6h-3.2v6.7h3.2v10.15q0,5.351,2.38,8.075t7.32,2.775a16.276,16.276,0,0,0,4.23-.6,11.711,11.711,0,0,0,3.77-1.7Z" transform="translate(-1148.25 -895.156)"/>
</svg>
